<?xml version="1.0" encoding="utf-8" standalone="yes"?>
<!DOCTYPE svg PUBLIC "-//W3C//DTD SVG 1.1//EN" "http://www.w3.org/Graphics/SVG/1.1/DTD/svg11.dtd">
<svg width="62" height="62" viewBox="0 0 62 62" style="fill:none;stroke:none;fill-rule:evenodd;clip-rule:evenodd;stroke-linecap:round;stroke-linejoin:round;stroke-miterlimit:1.5;" version="1.1" xmlns="http://www.w3.org/2000/svg" xmlns:xlink="http://www.w3.org/1999/xlink"><g id="items" style="isolation: isolate"><g id="blend" style="mix-blend-mode: normal"><g id="g-root-ic_down_1qdubeb13gi80a-fill" data-item-order="0" transform="translate(3, 3)"></g><g id="g-root-ic_down_1qdubeb13gi80a-stroke" data-item-order="0" transform="translate(3, 3)"><g id="ic_down_1qdubeb13gi80a-stroke" fill="none" stroke-linecap="round" stroke-linejoin="round" stroke-miterlimit="4" stroke="white" stroke-width="2"><g><path d="M 24.235001 45.271L 12.235 45.271C 11.406573 45.271 10.735 44.599426 10.735 43.771L 10.735 12.271C 10.735 11.442573 11.406573 10.771 12.235 10.771L 32.1745 10.771C 32.572292 10.771085 32.953762 10.929176 33.235001 11.2105L 38.800003 16.771C 39.081322 17.052238 39.239414 17.433708 39.239502 17.831501L 39.239502 22.771M 15.235 33.271L 24.235001 33.271M 17.485001 25.771L 18.985001 25.771C 19.399214 25.771 19.735001 26.106787 19.735001 26.521L 19.735001 33.271L 19.735001 33.271L 16.735001 33.271L 16.735001 33.271L 16.735001 26.521C 16.735001 26.106787 17.070786 25.771 17.485001 25.771ZM 25.735001 28.771L 25.735001 22.021C 25.735001 21.606787 25.399214 21.271 24.985001 21.271L 23.485001 21.271C 23.070786 21.271 22.735001 21.606787 22.735001 22.021L 22.735001 33.271M 27.235001 36.271C 27.235001 41.241562 31.264439 45.271 36.235001 45.271C 41.205563 45.271 45.235001 41.241562 45.235001 36.271C 45.235001 31.300438 41.205563 27.271002 36.235001 27.271002C 31.264439 27.271002 27.235001 31.300438 27.235001 36.271ZM 36.235001 31.771L 36.235001 40.771M 36.235001 40.771L 32.860001 37.396M 36.235001 40.771L 39.610001 37.396"></path></g></g></g></g></g></svg>