<?xml version="1.0" encoding="utf-8" standalone="yes"?>
<!DOCTYPE svg PUBLIC "-//W3C//DTD SVG 1.1//EN" "http://www.w3.org/Graphics/SVG/1.1/DTD/svg11.dtd">
<svg width="62" height="62" viewBox="0 0 62 62" style="fill:none;stroke:none;fill-rule:evenodd;clip-rule:evenodd;stroke-linecap:round;stroke-linejoin:round;stroke-miterlimit:1.5;" version="1.1" xmlns="http://www.w3.org/2000/svg" xmlns:xlink="http://www.w3.org/1999/xlink"><g id="items" style="isolation: isolate"><g id="blend" style="mix-blend-mode: normal"><g id="g-root-ic_2_140i1wz13gl2q0-fill" data-item-order="0" transform="translate(3, 3)"></g><g id="g-root-ic_2_140i1wz13gl2q0-stroke" data-item-order="0" transform="translate(3, 3)"><g id="ic_2_140i1wz13gl2q0-stroke" fill="none" stroke-linecap="round" stroke-linejoin="round" stroke-miterlimit="4" stroke="white" stroke-width="2"><g><path d="M 42.25 16.75C 42.25 18.406855 40.906857 19.75 39.25 19.75L 13.75 19.75C 12.093145 19.75 10.75 18.406855 10.75 16.75L 10.75 13.75C 10.75 12.093145 12.093145 10.75 13.75 10.75L 39.25 10.75C 40.906857 10.75 42.25 12.093145 42.25 13.75ZM 13.75 28.75C 12.093145 28.75 10.75 27.406855 10.75 25.75L 10.75 22.75C 10.75 21.093145 12.093145 19.75 13.75 19.75L 39.25 19.75C 40.906857 19.75 42.25 21.093145 42.25 22.75L 42.25 25M 17.125 14.875C 16.917892 14.875 16.75 15.042893 16.75 15.25C 16.75 15.457107 16.917892 15.625 17.125 15.625C 17.332108 15.625 17.5 15.457107 17.5 15.25C 17.5 15.042893 17.332108 14.875 17.125 14.875L 17.125 14.875M 22.375 14.875C 22.167892 14.875 22 15.042893 22 15.25C 22 15.457107 22.167892 15.625 22.375 15.625C 22.582108 15.625 22.75 15.457107 22.75 15.25C 22.75 15.042893 22.582108 14.875 22.375 14.875L 22.375 14.875M 17.125 23.875C 16.917892 23.875 16.75 24.042892 16.75 24.25C 16.75 24.457108 16.917892 24.625 17.125 24.625C 17.332108 24.625 17.5 24.457108 17.5 24.25C 17.5 24.042892 17.332108 23.875 17.125 23.875L 17.125 23.875M 22.375 23.875C 22.167892 23.875 22 24.042892 22 24.25C 22 24.457108 22.167892 24.625 22.375 24.625C 22.582108 24.625 22.75 24.457108 22.75 24.25C 22.75 24.042892 22.582108 23.875 22.375 23.875L 22.375 23.875M 23.5 37.75L 13.75 37.75C 12.093145 37.75 10.75 36.406857 10.75 34.75L 10.75 31.75C 10.75 30.093145 12.093145 28.75 13.75 28.75L 25.75 28.75M 17.125 32.875C 16.917892 32.875 16.75 33.042892 16.75 33.25C 16.75 33.457108 16.917892 33.625 17.125 33.625C 17.332108 33.625 17.5 33.457108 17.5 33.25C 17.5 33.042892 17.332108 32.875 17.125 32.875L 17.125 32.875M 22.375 32.875C 22.167892 32.875 22 33.042892 22 33.25C 22 33.457108 22.167892 33.625 22.375 33.625C 22.582108 33.625 22.75 33.457108 22.75 33.25C 22.75 33.042892 22.582108 32.875 22.375 32.875L 22.375 32.875M 27.25 36.25C 27.250002 41.220566 31.279438 45.25 36.25 45.25C 41.220566 45.25 45.25 41.220566 45.25 36.25C 45.25 31.279438 41.220566 27.250002 36.25 27.250002C 31.279438 27.250002 27.250002 31.279438 27.250002 36.25ZM 36.25 31.75L 36.25 40.75M 36.25 40.75L 32.875 37.375M 36.25 40.75L 39.625 37.375"></path></g></g></g></g></g></svg>