<?xml version="1.0" encoding="UTF-8"?>
<svg id="Layer_2" data-name="Layer 2" xmlns="http://www.w3.org/2000/svg" xmlns:xlink="http://www.w3.org/1999/xlink" viewBox="0 0 526.4 316">
  <defs>
    <style>
      .cls-1 {
        fill: none;
      }

      .cls-2 {
        fill: #ed1c24;
      }

      .cls-3 {
        clip-path: url(#clippath);
      }
    </style>
    <clipPath id="clippath">
      <rect class="cls-1" width="526.4" height="316"/>
    </clipPath>
  </defs>
  <g id="Layer_1-2" data-name="Layer 1">
    <g class="cls-3">
      <path class="cls-2" d="M526.4,188.93c-7.64,63.15-43.07,126.95-120.43,127.07-45.16.08-80.44-30.85-104.85-68.68v-43.8c30.56,15.19,59.14,31.46,93.78,31.96,42.73.64,81.34-15.78,97.3-46.54h34.21ZM267.83,228.57c-35.48,42.76-69.79,86.47-134.06,86.47C43.03,315.04,0,227.29,0,153.93S33.65,0,122.05,0c38.33,0,75.28,23.45,97.25,48.27l-.05,59.84c-18.4-12.35-59.56-24.52-86.46-24.97-56.06-.93-105.49,23.37-104.64,78.71.61,38.1,38.33,64,75.9,64,57.55,0,92.35-52.54,121.49-92.44,8.13-10.42,31.05-41.05,34.63-45.97C292.51,42.23,329.98.96,394.22.96c75.68,0,118.16,61,130.2,123.82h-34.15c-13.73-20.37-40.15-32.83-66.2-32.83-59.46,0-95.03,54.7-124.74,94.99,0,0-23.14,31.52-31.5,41.61"/>
    </g>
  </g>
</svg>